<?xml version="1.0" encoding="UTF-8"?>
<svg width="4096px" height="4096px" viewBox="0 0 4096 4096" xmlns="http://www.w3.org/2000/svg" xmlns:xlink="http://www.w3.org/1999/xlink" version="1.1">
 <!-- Generated by Pixelmator Pro 2.0.8 -->
 <defs>
  <linearGradient id="linear-gradient" gradientUnits="userSpaceOnUse" x1="630.471" y1="283.896" x2="2932.314" y2="2866.642">
   <stop offset="0" stop-color="#3478f6" stop-opacity="1"/>
   <stop offset="1" stop-color="#86ccfb" stop-opacity="1"/>
  </linearGradient>
 </defs>
 <path id="Background" d="M0 4096 L4096 4096 4096 0 0 0 Z" fill-opacity="1" fill="url(#linear-gradient)" stroke="none"/>
 <g id="Movie">
  <path id="Movie-Background" d="M926.991 954.094 C770.905 954.094 644.37 1080.629 644.37 1236.715 L644.37 2861.362 C644.37 3017.447 770.905 3143.982 926.991 3143.982 L3171.167 3143.982 C3327.253 3143.982 3453.788 3017.447 3453.788 2861.362 L3453.788 1236.715 C3453.788 1080.629 3327.253 954.094 3171.167 954.094 Z" fill="#6895ee" fill-opacity="1" stroke="none"/>
  <g id="Movie-Icon">
   <path id="Path" d="M897.338 930.214 L1379.913 930.214 2067.339 930.214 2740.048 930.214 3200.434 930.214 C3278.45 930.214 3349.458 962.215 3400.846 1013.369 3452.233 1064.756 3484 1135.765 3484 1213.78 L3484 1380.323 3484 2717.567 3484 2883.175 C3484 2961.19 3452 3032.199 3400.846 3083.586 3349.458 3134.974 3278.45 3166.741 3200.434 3166.741 L2751.961 3166.741 C2748.224 3167.441 2744.253 3167.675 2740.048 3167.675 2736.078 3167.675 2732.107 3167.441 2728.136 3166.741 L2079.251 3166.741 C2075.514 3167.441 2071.543 3167.675 2067.339 3167.675 2063.368 3167.675 2059.397 3167.441 2055.426 3166.741 L1391.826 3166.741 C1388.089 3167.441 1384.118 3167.675 1379.913 3167.675 1375.942 3167.675 1371.972 3167.441 1368.001 3166.741 L897.337 3166.741 C819.322 3166.741 748.314 3134.74 696.926 3083.586 645.538 3032.432 613.772 2961.19 613.772 2883.175 L613.772 2717.567 613.772 1380.323 613.772 1213.78 C613.772 1135.765 645.772 1064.756 696.926 1013.369 748.314 962.215 819.322 930.214 897.337 930.214 Z M1902.898 1659.917 L2382.438 1994.404 C2389.912 1999.075 2396.686 2005.616 2402.058 2013.324 2423.548 2044.39 2415.606 2086.668 2384.774 2108.157 L1907.103 2438.439 C1895.424 2448.016 1880.241 2453.855 1863.891 2453.855 1826.051 2453.855 1795.452 2423.256 1795.452 2385.417 L1795.452 1715.743 1795.685 1715.743 C1795.685 1702.196 1799.656 1688.648 1807.832 1676.735 1829.554 1645.903 1872.066 1638.428 1902.898 1659.917 Z M2808.254 2786.006 L2808.254 3030.097 3200.2 3030.097 C3240.61 3030.097 3277.282 3013.512 3303.91 2986.884 3330.538 2960.256 3347.122 2923.584 3347.122 2883.175 L3347.122 2786.006 Z M2671.61 3030.097 L2671.61 2786.006 2135.777 2786.006 2135.777 3030.097 Z M1999.133 3030.097 L1999.133 2786.006 1448.352 2786.006 1448.352 3030.097 Z M1311.474 3030.097 L1311.474 2786.006 750.416 2786.006 750.416 2883.175 C750.416 2923.584 767 2960.256 793.628 2986.884 820.256 3013.512 856.928 3030.097 897.337 3030.097 Z M750.416 2649.361 L1379.913 2649.361 2067.339 2649.361 2740.048 2649.361 3347.356 2649.361 3347.356 1448.761 2740.048 1448.761 2067.339 1448.761 1379.913 1448.761 750.416 1448.761 Z M2671.61 1312.117 L2671.61 1066.858 2135.777 1066.858 2135.777 1311.884 2671.61 1311.884 Z M2808.254 1066.858 L2808.254 1311.884 3347.122 1311.884 3347.122 1213.78 C3347.122 1173.371 3330.538 1136.699 3303.91 1110.071 3277.282 1083.443 3240.61 1066.858 3200.2 1066.858 Z M1999.133 1312.117 L1999.133 1066.858 1448.352 1066.858 1448.352 1311.884 1999.133 1311.884 Z M1311.474 1312.117 L1311.474 1066.858 897.337 1066.858 C856.928 1066.858 820.256 1083.443 793.628 1110.071 767 1136.699 750.416 1173.371 750.416 1213.78 L750.416 1311.884 1311.474 1311.884 Z" fill="#cfe0ff" fill-opacity="1" stroke="#aaa4ff" stroke-width="5" stroke-opacity="1" stroke-linejoin="round" stroke-linecap="round"/>
  </g>
 </g>
</svg>
