<?xml version="1.0" encoding="UTF-8"?>
<!-- Generated by Pixelmator Pro 3.7 -->
<svg width="1024" height="1024" viewBox="0 0 1024 1024" xmlns="http://www.w3.org/2000/svg">
    <g id="movie-media-player-icon">
        <path id="Path" fill="#000000" fill-rule="evenodd" stroke="none" d="M 716.607971 80.632751 L 87.05146 479.909058 L 22.715841 381.551331 L 652.72467 0.017517 L 716.607971 80.632751 L 716.607971 80.632751 Z M 1001.3078 762.768799 L 197.336594 1024 L 89.515587 485.467712 L 839.618713 297.003967 L 1001.3078 762.768799 L 1001.3078 762.768799 Z M 678.482544 89.450867 L 653.565735 13.914368 L 614.204224 37.755188 L 638.852356 114.634277 L 678.482544 89.450867 L 678.482544 89.450867 L 678.482544 89.450867 Z M 598.78949 139.965271 L 574.517883 62.009521 L 533.464539 86.595154 L 557.532349 166.317505 L 598.78949 139.965271 L 598.78949 139.965271 Z M 512.585754 192.265991 L 489.413971 112.871094 L 446.826599 138.585388 L 469.665192 219.50769 L 512.585754 192.265991 L 512.585754 192.265991 L 512.585754 192.265991 Z M 858.913879 392.658386 L 803.093506 320.503113 L 754.300964 332.861145 L 809.986267 405.652405 L 858.913879 392.658386 L 858.913879 392.658386 Z M 758.237732 419.395508 L 702.703186 345.929626 L 652.31427 358.691895 L 707.890808 432.766479 L 758.237732 419.395508 L 758.237732 419.395508 Z M 426.458649 249.024841 L 403.87973 166.175659 L 359.713104 192.88501 L 381.754913 276.77533 L 426.458649 249.024841 L 426.458649 249.024841 Z M 658.356323 445.921631 L 603.135193 371.147766 L 551.53418 384.217102 L 606.580994 459.671875 L 658.356323 445.921631 L 658.356323 445.921631 Z M 333.320953 305.397644 L 311.955261 220.722778 L 265.386902 248.637207 L 286.340515 335.138 L 333.320953 305.397644 L 333.320953 305.397644 Z M 551.798218 474.220947 L 496.944458 398.043335 L 443.681335 411.533569 L 498.337921 488.418701 L 551.798218 474.220947 L 551.798218 474.220947 Z M 241.565857 365.431091 L 221.071457 277.335999 L 173.012894 306.915649 L 192.736069 395.59436 L 241.565857 365.431091 L 241.565857 365.431091 L 241.565857 365.431091 Z M 443.668213 502.937622 L 389.222137 425.326782 L 334.528961 439.17926 L 388.754639 517.521362 L 443.668213 502.937622 L 443.668213 502.937622 Z M 140.166458 426.684204 L 121.101616 336.576965 L 71.21788 366.481689 L 89.793839 458.793823 L 140.166458 426.684204 L 140.166458 426.684204 Z M 331.279816 532.785278 L 276.715607 453.82196 L 220.800476 467.983948 L 273.948578 548.011108 L 331.279816 532.785278 L 331.279816 532.785278 Z M 217.686356 562.953003 L 163.609024 482.469116 L 105.556442 497.172424 L 158.760757 578.602173 L 217.686356 562.953003 L 217.686356 562.953003 Z"/>
    </g>
</svg>
