<?xml version="1.0" encoding="UTF-8"?>
<!-- Generated by Pixelmator Pro 3.7 -->
<svg width="1024" height="1024" viewBox="0 0 1024 1024" xmlns="http://www.w3.org/2000/svg">
    <g id="movie-videos-icon">
        <path id="Path" fill="#000000" stroke="none" d="M 147.482132 269.958191 L 273.291107 242.194824 L 445.059937 204.289124 L 605.223389 168.944458 L 710.595764 145.690979 C 728.124634 141.822754 746.353882 145.176758 761.608643 153.615417 C 776.901672 162.115906 789.344482 175.8703 795.29895 192.851013 L 808.159851 229.526978 L 919.418091 546.806641 L 934.271484 589.164673 C 941.357483 609.372253 940.208008 630.238892 932.636902 647.5354 C 924.938782 665.010498 910.59314 678.864258 891.520386 684.793579 L 779.636963 719.576172 C 778.748413 720.064819 777.760132 720.442932 776.692078 720.775024 C 775.683105 721.088745 774.653687 721.337891 773.583923 721.458008 L 604.302673 774.084534 C 603.3573 774.596497 602.312378 774.994141 601.186157 775.344299 C 600.122192 775.67511 599.039612 775.938965 597.920044 776.068726 L 415.133209 832.893921 C 414.124603 833.431763 413.016815 833.850952 411.826172 834.221191 C 410.701294 834.570923 409.559753 834.851074 408.385345 834.991699 L 272.321075 877.291687 C 249.247528 884.464844 226.169144 881.141174 207.765854 870.103333 C 189.393341 859.083862 175.769241 840.176758 171.306595 816.504761 L 161.966293 766.959473 L 92.60408 399.029846 L 84.653816 356.857971 C 80.977623 337.357605 86.374153 317.78302 97.823677 302.042847 C 109.242188 286.489685 126.719612 274.540039 147.482132 269.958191 L 147.482132 269.958191 Z M 450.479218 386.387451 L 594.088989 438.584473 C 596.287048 439.262817 598.44635 440.451721 600.342651 442.022705 C 607.952698 448.371399 609.077332 459.47168 602.960876 466.908142 L 504.347626 585.870605 C 501.953003 589.289246 498.367065 591.970215 494.055847 593.174316 C 484.057587 595.967041 473.828186 590.002319 471.212708 579.863586 L 426.62851 407.037903 L 426.688507 407.022949 C 425.818542 403.650879 425.968628 400.030396 427.300629 396.554199 C 430.880829 387.551208 441.241913 383.033752 450.479218 386.387451 L 450.479218 386.387451 Z M 761.576721 612.367981 L 782.143677 677.774841 L 879.182373 648.21698 C 889.023132 645.219482 896.437256 638.119568 900.489075 629.141846 C 904.521484 620.207153 905.221375 609.417725 901.608521 598.897217 L 892.982788 573.779907 L 761.576721 612.367981 L 761.576721 612.367981 Z M 747.621155 688.290405 L 727.395569 622.405457 L 589.843811 662.798218 L 608.647888 730.62146 L 747.621155 688.290405 L 747.621155 688.290405 Z M 572.260986 741.704834 L 553.841492 673.370422 L 404.727722 717.158447 L 421.498016 787.627075 L 572.260986 741.704834 L 572.260986 741.704834 Z M 382.978607 799.360046 L 366.643951 728.341919 L 206.048386 775.501648 L 211.745224 804.455261 C 214.133209 816.59198 221.20549 826.179932 230.654938 831.857422 C 240.112671 837.539795 251.913849 839.282227 263.766052 835.671997 L 382.978607 799.360046 L 382.978607 799.360046 Z M 198.144028 735.328491 L 376.667358 683.970825 L 561.65509 630.753479 L 733.3703 581.35437 L 881.054504 538.86853 L 782.59375 252.170593 L 641.575073 285.933838 L 478.083435 325.077637 L 302.521729 367.111206 L 133.649826 407.543152 L 198.144028 735.328491 L 198.144028 735.328491 Z M 615.627258 258.319763 L 598.588562 202.81604 L 470.331848 231.73877 L 486.101807 288.618286 L 615.61084 258.266235 L 615.627258 258.319763 Z M 630.529663 195.613037 L 647.854553 250.709534 L 772.039612 221.605225 L 764.598022 199.93634 C 761.553223 191.070007 755.071289 183.903564 747.091553 179.455933 C 739.117554 175.011414 729.621704 173.26709 720.485046 175.327515 L 630.529663 195.613037 L 630.529663 195.613037 Z M 452.284454 296.602661 L 436.836517 239.292236 L 298.431641 270.503418 L 312.429138 329.32074 L 452.269531 296.547363 L 452.284454 296.602661 Z M 276.800568 337.731018 L 263.16687 278.455872 L 154.276337 303.011475 C 143.470901 305.448181 134.45224 311.72522 128.593063 319.886047 C 122.705757 328.085999 120.004677 338.193054 121.982101 348.243042 L 126.817993 372.821045 L 276.787415 337.673767 L 276.800568 337.731018 Z"/>
    </g>
</svg>
