<svg xmlns="http://www.w3.org/2000/svg" viewBox="0 0 10.56 10.4"><defs><style>.cls-1{fill:#fad9e2;}.cls-2{fill:#ffb9ac;}.cls-3{fill:#8c072e;}</style></defs><title>movie</title><g id="Ebene_2" data-name="Ebene 2"><g id="layer_1" data-name="layer 1"><polygon class="cls-1" points="4.26 3.93 4.26 6.29 6.23 5.11 4.26 3.93"/><polygon class="cls-1" points="0.61 2.94 1.96 2.94 1.96 2.09 1.96 1.59 0.61 1.59 0.61 2.94"/><rect class="cls-1" x="0.61" y="3.55" width="1.35" height="1.35"/><path class="cls-2" d="M2.57,3.24V7.16h0v.67H8V7.16H8V2.4H2.57Zm1.08.15a.33.33,0,0,1,.15-.27.31.31,0,0,1,.31,0L7,4.85a.3.3,0,0,1,0,.52L4.11,7.1a.42.42,0,0,1-.16,0,.28.28,0,0,1-.15,0,.33.33,0,0,1-.15-.27Z"/><polygon class="cls-1" points="0.61 8.81 1.96 8.81 1.96 8.13 1.96 7.46 0.61 7.46 0.61 8.81"/><rect class="cls-1" x="0.61" y="5.51" width="1.35" height="1.35"/><polygon class="cls-1" points="8.61 8.13 8.61 8.81 9.95 8.81 9.95 7.46 8.61 7.46 8.61 8.13"/><polygon class="cls-1" points="8.61 2.09 8.61 2.94 9.95 2.94 9.95 1.59 8.61 1.59 8.61 2.09"/><rect class="cls-1" x="8.61" y="3.55" width="1.35" height="1.35"/><rect class="cls-1" x="8.61" y="5.51" width="1.35" height="1.35"/><path class="cls-3" d="M3.8,7.1a.28.28,0,0,0,.15,0,.42.42,0,0,0,.16,0L7,5.37a.3.3,0,0,0,0-.52L4.11,3.13a.31.31,0,0,0-.31,0,.33.33,0,0,0-.15.27V6.83A.33.33,0,0,0,3.8,7.1Zm.46-3.17,2,1.18-2,1.18Z"/><path class="cls-3" d="M10.26,0A.31.31,0,0,0,10,.31V1H8.61V.3A.31.31,0,0,0,8.3,0,.3.3,0,0,0,8,.3V1.79H2.57V.31A.31.31,0,0,0,2.26,0,.3.3,0,0,0,2,.31V1H.61V.3A.31.31,0,0,0,.3,0,.31.31,0,0,0,0,.3V7.16H0v2.93a.31.31,0,0,0,.3.31.31.31,0,0,0,.31-.31V9.42H2v.68a.3.3,0,0,0,.3.3.31.31,0,0,0,.31-.3V8.44H8v1.65a.3.3,0,0,0,.3.31.31.31,0,0,0,.31-.31V9.42H10v.68a.31.31,0,0,0,.31.3.3.3,0,0,0,.3-.3V7.16h0V.31A.3.3,0,0,0,10.26,0ZM2,8.13v.68H.61V7.46H2ZM2,6.85H.61V5.51H2ZM2,4.9H.61V3.55H2ZM2,2.09v.85H.61V1.59H2ZM8,3.24V7.16H8v.67H2.57V7.16h0V2.4H8ZM10,8.81H8.61V7.46H10Zm0-2H8.61V5.51H10ZM10,4.9H8.61V3.55H10Zm0-2H8.61V1.59H10Z"/></g></g></svg>