<?xml version="1.0" encoding="utf-8"?><svg version="1.1" id="Layer_1" xmlns="http://www.w3.org/2000/svg" xmlns:xlink="http://www.w3.org/1999/xlink" x="0px" y="0px" viewBox="0 0 120.71 122.88" style="enable-background:new 0 0 120.71 122.88" xml:space="preserve"><style type="text/css">.st0{fill-rule:evenodd;clip-rule:evenodd;}</style><g><path class="st0" d="M59.97,0c33.11,0,59.96,26.85,59.96,59.97c0,16.04-6.3,30.62-16.57,41.38c3.34,9.99,4.44,6.97,17.36,8.88v12.5 c-19.28,0.78-15.44-1.14-27.55-12.83c-9.51,6.34-20.92,10.03-33.2,10.03C26.85,119.93,0,93.08,0,59.97C0,26.85,26.86,0,59.97,0 L59.97,0z M27.63,44.25c8.91,0,16.14,7.22,16.14,16.14c0,8.91-7.22,16.13-16.14,16.13c-8.91,0-16.13-7.22-16.13-16.13 C11.5,51.47,18.72,44.25,27.63,44.25L27.63,44.25z M93.08,44.25c8.91,0,16.14,7.22,16.14,16.14c0,8.91-7.22,16.13-16.14,16.13 c-8.91,0-16.13-7.22-16.13-16.13C76.95,51.47,84.17,44.25,93.08,44.25L93.08,44.25z M60.83,10.86c8.91,0,16.13,7.22,16.13,16.14 c0,8.91-7.22,16.13-16.13,16.13c-8.91,0-16.14-7.22-16.14-16.13C44.69,18.09,51.92,10.86,60.83,10.86L60.83,10.86L60.83,10.86z M60.26,51.71c4.58,0,8.3,3.72,8.3,8.3c0,4.58-3.72,8.3-8.3,8.3c-4.58,0-8.3-3.72-8.3-8.3C51.96,55.42,55.68,51.71,60.26,51.71 L60.26,51.71L60.26,51.71z M60.83,78.38c8.91,0,16.13,7.22,16.13,16.14c0,8.91-7.22,16.13-16.13,16.13 c-8.91,0-16.14-7.22-16.14-16.13C44.69,85.61,51.92,78.38,60.83,78.38L60.83,78.38L60.83,78.38z"/></g></svg>